<svg id="Layer_1" data-name="Layer 1" xmlns="http://www.w3.org/2000/svg" viewBox="0 0 120.61 84.54"><defs><style>.cls-1{fill:#fff;}</style></defs><path class="cls-1" d="M89.17,7.4A42.23,42.23,0,0,0,23.28,37.89a165.09,165.09,0,0,1-19.85-6L0,30.61l2.83,2.32A81.06,81.06,0,0,0,23.11,44.49a42.27,42.27,0,0,0,83.64,6.13c7.93-3.07,12.7-7.55,13.67-13C122.25,27.45,110.05,15.73,89.17,7.4ZM65.32,1.81a40.52,40.52,0,0,1,37.51,25.33,9.74,9.74,0,0,1-.14,1.21c-2.55,13.27-34.56,18.33-71.36,11.28-2.12-.41-4.2-.86-6.27-1.32A40.51,40.51,0,0,1,65.32,1.81Zm0,80.92A40.51,40.51,0,0,1,25,45.24a145.8,145.8,0,0,0,27,7.48,146.29,146.29,0,0,0,25.76,2.4,98,98,0,0,0,20.45-2,62.36,62.36,0,0,0,6.55-1.78A40.52,40.52,0,0,1,65.32,82.73Zm53.92-45.32c-2.52,14-32.6,20.32-67.06,14.12C34.2,48.3,17.59,42,6.75,34.37A176.09,176.09,0,0,0,31.1,40.81C49.16,44.27,66.63,45,80.31,42.72c13.88-2.27,22.25-7.29,23.56-14.14,1.13-5.86-3-12.37-11.77-18.66C110.36,17.88,120.86,28.36,119.24,37.41ZM42.81,24.16s-.37,4-.34,10.22l4.63.92c3-7.15,9.18-15.89,9.18-15.89l-4.62-.7-4.41,7.41a62.08,62.08,0,0,1,.13-7.86l-4.45-.63C37.92,21,32,31.52,32,31.52l5.09.93A46.45,46.45,0,0,1,42.81,24.16Zm18,13.46.93-3.78,6.56-.08.85,3.55h6.09c-1.62-8-7.79-18.06-7.79-18.06l-4.71-.07C59,23.42,54.58,37.46,54.58,37.46Zm4.25-12.73s1.85,4,2.39,5.86h-5A35.23,35.23,0,0,1,65.08,24.89Zm28.08,8.56C97,30.58,92.08,24,92.08,24l-3.9,1.6c3.46,4.13,1.43,5.27,1.43,5.27-2.25.93-5.86-3.79-5.86-3.79-4.79-6-2.32-6.78-2.32-6.78,1.47-1.24,4.4,1.92,4.4,1.92l3.67-1.78C83.45,13.69,78,17.94,78,17.94,72.39,21.8,80,30.29,80,30.29,86.29,38,93.16,33.45,93.16,33.45Z"/></svg>